<svg xmlns="http://www.w3.org/2000/svg" viewBox="0 0 720 560" fill="none">
  <rect width="720" height="560" rx="48" fill="#F7FBFF"/>
  <circle cx="128" cy="124" r="68" fill="#D7ECFF"/>
  <circle cx="598" cy="92" r="46" fill="#FFF0A6"/>
  <circle cx="614" cy="430" r="76" fill="#DDF2D1"/>
  <rect x="148" y="108" width="418" height="308" rx="44" fill="#ffffff" stroke="#D8E4F2" stroke-width="12"/>
  <rect x="214" y="178" width="286" height="168" rx="34" fill="#7B6FF6"/>
  <path d="M248 212h214c13.255 0 24 10.745 24 24v64c0 13.255-10.745 24-24 24H248c-13.255 0-24-10.745-24-24v-64c0-13.255 10.745-24 24-24Z" fill="#ffffff" opacity=".16"/>
  <circle cx="246" cy="166" r="42" fill="#FF8A6B"/>
  <circle cx="470" cy="166" r="42" fill="#FFD16A"/>
  <path d="M288 228h138v84H288z" fill="#ffffff"/>
  <path d="M316 202h82v138h-82z" fill="#ffffff"/>
  <rect x="176" y="436" width="166" height="64" rx="26" fill="#ffffff"/>
  <rect x="360" y="436" width="180" height="64" rx="26" fill="#ffffff"/>
  <text x="258" y="475" fill="#35506C" font-family="Arial, sans-serif" font-size="28" font-weight="700" text-anchor="middle">
    Safe
  </text>
  <text x="450" y="475" fill="#35506C" font-family="Arial, sans-serif" font-size="28" font-weight="700" text-anchor="middle">
    Creative
  </text>
</svg>
